<?xml version="1.0" encoding="utf-8"?>
<!-- Generator: Adobe Illustrator 16.0.0, SVG Export Plug-In . SVG Version: 6.00 Build 0)  -->
<!DOCTYPE svg PUBLIC "-//W3C//DTD SVG 1.1//EN" "http://www.w3.org/Graphics/SVG/1.1/DTD/svg11.dtd">
<svg version="1.1" id="Layer_1" xmlns="http://www.w3.org/2000/svg" xmlns:xlink="http://www.w3.org/1999/xlink" x="0px" y="0px"
	 width="300px" height="300px" viewBox="0 0 300 300" enable-background="new 0 0 300 300" xml:space="preserve">
<path fill="#33aacc" d="M216.612,156.207c0.281-7.293-13.397-17.674-10.942-27.703c2.455-10.031,2.104-19.5-3.366-32.685
	c0,0,8.837,3.438,7.925-3.366c-0.912-6.803-10.661-13.957-17.955-18.516c-3.297-2.034-12.274-6.452-24.338-9.047l-2.244,6.172l0,0
	l0,0c0.491,0.21,7.364,3.297,10.239,6.242l0,0l2.315-3.156c0,0,13.466,7.295,17.604,23.426l-3.577,1.192c0-0.071,0-0.071,0-0.071
	c0.28,0.983,4.068,13.678-0.211,27.704l-9.819-3.296c-0.491,1.333-5.471,13.748-12.063,15.921l-6.172-8.135
	c-2.946,2.315-9.75,4.349-12.976,3.437v-0.28c-0.07,0-0.14,0-0.14,0l0.21,22.513c-12.975,1.333-28.475-6.522-35.91-17.324
	l-8.136,6.172c-9.258-11.152-10.661-24.62-10.731-32.334h10.941c0-8.556,3.367-19.709,8.066-25.88l8.557,6.032l0,0l0,0
	c0.701-0.841,7.154-8.557,15.78-11.363l0,0c0.07,0,0.07,0,0.14-0.069l-6.453-17.113c-6.031,1.332-12.203,3.506-18.305,6.732
	c-49.166,26.161-24.198,77.291-8.978,89.496c15.219,12.203,8.205,36.961,0,59.405h66.069c0.912-4.21,0.14,2.104,3.226-14.729
	c3.086-16.763,14.939-10.521,24.268-11.082c9.328-0.561,7.855-7.084,7.785-14.378c4.558-2.034,4.558-4.208,1.542-6.874
	c3.928-3.646,3.367-3.646,1.193-7.223c-2.105-3.578-0.631-5.261-0.631-5.261S215.701,159.574,216.612,156.207z"/>
<polygon fill="none" stroke="#33aacc" stroke-width="13" stroke-miterlimit="10" points="150.683,13.899 25.068,58.087 
	42.813,225.993 152.085,286.101 258.554,225.993 279.104,58.087 "/>
<path fill="#33aacc" stroke="#33aacc" stroke-width="2" stroke-miterlimit="10" d="M133.149,64.82
	c12.835-3.718,22.584-3.857,33.455,0.209c0.421,0.141,0.771,0.351,1.052,0.561l2.245-5.049c-18.025-8.767-38.716-0.703-38.716-0.703
	L133.149,64.82"/>
<circle fill="#33aacc" stroke="#33aacc" stroke-width="2" stroke-miterlimit="10" cx="150.403" cy="107.532" r="10.17"/>
</svg>
