<svg xmlns="http://www.w3.org/2000/svg" viewBox="0 0 20 20">
  <defs>
    <style>
    .cls-1{fill:#3ac;}.cls-2{fill:#fff;}</style>
  </defs>
  <title>Powered by DataCamp</title>
  <g id="Calque_2" data-name="Calque 2">
    <g id="Calque_1-2" data-name="Calque 1" transform="scale(0.0625)">
      <path class="cls-1" d="M281.51,47.21h0L145.8.52a9.88,9.88,0,0,0-6.43,0L6.56,47.23A9.77,9.77,0,0,0,.06,57.52l18.7,176.93a9.82,9.82,0,0,0,5,7.56l115.55,63.55a9.81,9.81,0,0,0,9.54-.05l112.68-63.56a9.85,9.85,0,0,0,4.91-7.35L288,57.67A9.86,9.86,0,0,0,281.51,47.21Z"/>
      <path class="cls-2" d="M205.66,130.43c2.82-11.64,2.47-22.58-3.88-37.88,0,0,10.23,4,9.17-3.9s-12.34-16.17-20.8-21.44c-3.72-2.32-13.81-7.27-27.33-10.28l2.52-5.7-.7-.34c-21-10.21-45.23-1-45.48-.86l-.75.29,2.4,6.34a83.51,83.51,0,0,0-20.39,7.59C43.48,94.59,72.4,153.81,90,167.92s9.52,42.85,0,68.86h76.55c1.06-4.88.14,2.4,3.7-17s17.32-12.21,28.16-12.87,9.12-8.2,9-16.66c5.29-2.38,5.29-4.89,1.76-7.93,4.59-4.23,3.88-4.23,1.41-8.38s-.71-6.08-.71-6.08,7.4-1.44,8.46-5.31C218.7,154,202.84,142.07,205.66,130.43ZM189.84,128l-11.34-3.85c-.6,1.55-6.38,16-14,18.49l-7.16-9.46c-3.44,2.69-11.28,5.06-15.07,3.95v-.35l-.2,0,.21,26.08c-15,1.56-33-7.56-41.63-20.1l-9.41,7.14c-10.7-12.92-12.33-28.5-12.44-37.44H91.49c0-9.92,3.88-22.85,9.34-30l9.88,7,0,0c.8-1,8.27-9.92,18.26-13.15h0l.15,0L122,57.39c15.09-4.34,26.17-4.28,38.23.2a4.14,4.14,0,0,1,1,.52l.19.14-2.07,5.63h0v0c.56.25,8.57,3.84,11.88,7.22h0l2.66-3.68s15.61,8.41,20.37,27.13L190.11,96l0-.1A59.23,59.23,0,0,1,189.84,128Z"/>
      <path class="cls-2" d="M141.62,93.53a12.6,12.6,0,1,0,12.6,12.6A12.61,12.61,0,0,0,141.62,93.53Z"/>
    </g>
  </g>
</svg>
