<?xml version="1.0" encoding="UTF-8"?>
<svg width="27px" height="36px" viewBox="0 0 27 36" version="1.1" xmlns="http://www.w3.org/2000/svg" xmlns:xlink="http://www.w3.org/1999/xlink">
    <g id="Logos" stroke="none" stroke-width="1" fill="none" fill-rule="evenodd">
        <g id="Logo-Monochrome" transform="translate(-32.000000, -32.000000)" fill="#05192D">
            <g id="logo" transform="translate(32.000000, 32.000000)">
                <path d="M11.9992207,9.31232492 L11.9992207,17.6451249 L3.15762072,22.6883249 L3.15762072,4.23872492 L11.9992207,9.31232492 Z M14.8600207,26.8195249 L14.8600207,19.3091249 L26.7000207,12.5523249 L23.8200207,10.9027249 L14.8600207,16.0147249 L14.8600207,8.47872492 C14.8584004,7.96654925 14.5848525,7.49378056 14.1416207,7.23712492 L3.35602072,1.05472492 C3.32722072,1.03712492 3.29842072,1.02272492 3.26962072,1.00832492 C2.62889073,0.696458955 1.87266059,0.736872898 1.26881814,1.11525047 C0.66497568,1.49362804 0.298805717,2.15652839 0.30001031,2.86912492 L0.30001031,24.0531249 C0.297761124,24.7666712 0.66365336,25.4309343 1.26795499,25.810372 C1.87225662,26.1898096 2.62951814,26.2307685 3.27122072,25.9187249 L3.35282072,25.8771249 L11.9928207,20.9443249 L11.9928207,27.6643249 C11.9945334,28.1777316 12.2694645,28.6513935 12.7144207,28.9075249 L23.8024207,35.1987249 L26.6824207,33.5475249 L14.8600207,26.8195249 Z" id="Logo"></path>
            </g>
        </g>
    </g>
</svg>
