<svg xmlns="http://www.w3.org/2000/svg" width="18" height="18" viewBox="0 0 18 18">
  <g id="brands/github" fill="none" fill-rule="evenodd" stroke="none" stroke-width="1">
    <path id="github" fill="#05192d" d="M12.142,10.1981 C11.4958,10.1981 10.972,10.9244 10.972,11.8172 C10.972,12.7118 11.4958,13.4381 12.142,13.4381 C12.7882,13.4381 13.312,12.7118 13.312,11.8172 C13.3111,10.9244 12.7882,10.1981 12.142,10.1981 Z M16.2154,5.9834 C16.3495,5.6549 16.3549,3.7883 15.6439,2 C15.6439,2 14.014,2.1791 11.548,3.872 C11.0305,3.728 10.1548,3.6578 9.2809,3.6578 C8.4052,3.6578 7.5304,3.728 7.0129,3.872 C4.546,2.1791 2.9161,2 2.9161,2 C2.206,3.7883 2.2132,5.6549 2.3455,5.9834 C1.5103,6.8906 1,7.9805 1,9.4673 C1,15.9347 6.3667,16.0382 7.7203,16.0382 C8.0281,16.0382 8.6365,16.04 9.2809,16.04 C9.9244,16.04 10.5337,16.0382 10.8397,16.0382 C12.1951,16.0382 17.56,15.9347 17.56,9.4673 C17.56,7.9805 17.0506,6.8906 16.2154,5.9834 Z M9.3052,15.2435 L9.2548,15.2435 C5.8609,15.2435 3.2167,14.8394 3.2167,11.54 C3.2167,10.7489 3.4957,10.0163 4.159,9.4079 C5.2633,8.3936 7.1335,8.93 9.2548,8.93 C9.2638,8.93 9.2728,8.93 9.2809,8.93 C9.2899,8.93 9.2971,8.93 9.3052,8.93 C11.4265,8.93 13.2976,8.3936 14.4028,9.4079 C15.0643,10.0163 15.3433,10.7489 15.3433,11.54 C15.3433,14.8394 12.7,15.2435 9.3052,15.2435 Z M6.4189,10.1981 C5.7727,10.1981 5.2489,10.9244 5.2489,11.8172 C5.2489,12.7118 5.7727,13.4381 6.4189,13.4381 C7.066,13.4381 7.5898,12.7118 7.5898,11.8172 C7.5898,10.9244 7.066,10.1981 6.4189,10.1981 Z"/>
  </g>
</svg>
